<?xml version="1.0" standalone="no"?>
<!DOCTYPE svg PUBLIC "-//W3C//DTD SVG 20010904//EN" "http://www.w3.org/TR/2001/REC-SVG-20010904/DTD/svg10.dtd">
<!-- Created using Krita: https://krita.org -->
<svg xmlns="http://www.w3.org/2000/svg" xmlns:xlink="http://www.w3.org/1999/xlink" xmlns:krita="http://krita.org/namespaces/svg/krita" xmlns:sodipodi="http://sodipodi.sourceforge.net/DTD/sodipodi-0.dtd" width="288pt" height="504pt" viewBox="0 0 288 504" > <defs /> <path id="shape0" transform="translate(78.0013445194515, 37.3089627051583)" fill="#090b23" fill-rule="evenodd" stroke="#000000" stroke-opacity="0" stroke-width="0" stroke-linecap="square" stroke-linejoin="bevel" d="M65.9987 28.6217C59.6612 29.044 58.1311 28.8749 49.4052 32.631C40.6792 36.387 35.4966 48.2738 33.9193 56.9897C32.342 65.7056 32.7956 73.9522 34.9519 80.2963C36.3894 84.5257 39.6486 90.9147 44.0975 93.7197C47.0634 95.5897 51.4409 97.1052 57.2299 98.2663L56.8571 103.529C56.4803 104.878 55.6444 105.935 54.3495 106.701C52.4071 107.848 52.2633 108.526 48.6875 108.526C45.1118 108.526 45.5287 107.746 42.6593 106.996C39.7898 106.245 33.0404 109.814 31.3379 113.634C29.6354 117.453 27.4912 123.974 27.6677 129.978C27.8443 135.982 24.6495 157.854 23.2869 165.859C18.2857 178.176 4.48813 198.092 0.444057 207.894C-0.210882 211.677 -0.141345 215.328 0.652668 218.846C1.44668 222.365 2.35066 225.738 3.36461 228.964C4.81781 229.934 5.76026 230.11 5.45071 228.338C4.12656 224.581 2.9633 220.937 3.57322 218.533C4.07036 216.17 5.10388 215.059 6.18085 214.048L8.03124 220.293L9.94887 220.146L7.81004 209.368C8.3312 202.044 15.8379 194.205 18.062 190.634C21.739 184.747 28.508 177.197 31.5592 171.31C33.9201 160.062 35.2306 153.308 35.4906 151.048C35.7507 148.788 36.7389 141.713 38.4552 129.823C38.611 129.086 39.9316 128.27 39.8935 129.86C40.1782 135.982 40.125 141.586 40.4097 147.708C41.2273 156.313 41.934 162.678 43.3135 173.682C41.4137 182.422 37.6044 188.925 36.2795 193.141C33.7668 198.866 32.095 203.586 31.2641 207.302C30.4333 211.019 28.1617 214.45 28.2619 230.37C28.3622 246.29 32.3312 263.751 33.6243 269.994C34.9174 276.237 37.0423 283.923 39.9989 293.051C36.6693 304.954 34.7131 312.737 34.1304 316.4C33.5478 320.063 33.964 328.47 35.3791 341.622L39.6244 359.602L39.2498 378.581L38.0044 384.214L36.7683 388.716L38.0533 395.057C41.1974 395.913 43.2947 398.105 47.903 398.669C50.9134 397.597 55.1259 397.618 55.3087 393.975L52.3075 387.48L50.8065 381.83L51.866 367.615L53.0138 353.577L53.484 338.001L54.9824 323.767C57.7375 316.134 59.3704 311.093 59.8811 308.642C60.3917 306.191 62.0621 298.407 62.02 291.826C61.9919 287.438 61.4619 279.475 60.4302 267.935L61.8428 252.572L65.6393 233.413L67.1403 222.288L71.8197 240.3L75.8811 254.338L79.3244 270.937C79.5693 280.123 80.1171 287.202 80.9678 292.173C81.8185 297.144 81.8981 298.978 86.0345 308.902C88.7921 315.517 90.6167 322.169 91.5085 328.855L99.1835 358.229L100.338 370.705L98.5718 383.772L96.4528 391.895C95.9757 397.393 103.326 398.021 109.212 398.703C112.811 397.164 116.097 395.449 116.275 391.993L110.932 378.828L113.051 357.638C114.362 340.245 114.438 327.404 113.28 319.115C112.121 310.826 108.965 300.106 103.811 286.958C105.828 260.816 106.384 243.849 105.48 236.057C104.446 227.234 102.963 218.901 100.681 209.355C99.1115 202.786 95.5513 192.694 92.8586 186.407C89.6033 180.39 88.1962 176.305 85.9903 169.392C83.7767 156.876 85.7702 153.882 85.5478 146.086L88.793 129.86L90.8582 119.534L96.1685 109.798L107.674 85.9017L114.229 71.858L114.167 62.0563L99.6829 34.5867L96.4365 28.4685L98.1846 17.3558L92.8155 8.11602L86.6973 8.99005L85.4487 10.2387L80.4542 0L77.5824 0L83.2011 13.9845L81.9525 20.8519L77.4575 15.9823L76.084 16.7315L77.4575 20.8519L87.9459 31.4652L91.1923 33.463L103.678 66.3016L103.678 68.4243C100.599 75.1668 97.5186 81.9094 94.4387 88.6519C91.6743 95.5094 90.4655 95.1689 88.7193 97.2599L81.7863 101.095L76.5497 106.258C74.2304 106.65 72.6816 106.662 71.9031 106.295C71.1247 105.928 70.0184 104.908 68.5842 103.234L68.8178 97.8869C75.1534 96.698 79.6975 95.0631 82.4501 92.9821C86.579 89.8608 90.0959 83.3205 91.4482 79.1162C93.4766 72.8098 93.1293 60.5527 92.1858 54.482C90.7705 45.376 86.7871 38.7579 85.2175 37.0589C83.6478 35.36 80.862 31.8073 76.2611 30.4672C71.6601 29.1272 68.9833 28.688 65.9987 28.6217Z" /> </svg>
