<?xml version="1.0" standalone="no"?>
<!DOCTYPE svg PUBLIC "-//W3C//DTD SVG 20010904//EN" "http://www.w3.org/TR/2001/REC-SVG-20010904/DTD/svg10.dtd">
<!-- Created using Krita: https://krita.org -->
<svg xmlns="http://www.w3.org/2000/svg" 
    xmlns:xlink="http://www.w3.org/1999/xlink"
    xmlns:krita="http://krita.org/namespaces/svg/krita"
    xmlns:sodipodi="http://sodipodi.sourceforge.net/DTD/sodipodi-0.dtd"
    width="288pt"
    height="504pt"
    viewBox="0 0 288 504">
<defs/>
<path id="shape0" transform="translate(85.4298095012416, 85.0484984967472)" fill="#090b23" fill-rule="evenodd" stroke="#000000" stroke-opacity="0" stroke-width="0" stroke-linecap="square" stroke-linejoin="bevel" d="M57.4902 0.00150527C43.3489 -0.0900097 36.8646 4.00798 33.6402 7.74151C30.4158 11.475 27.8913 16.9469 26.0668 24.1571C26.7456 32.8969 26.5759 39.8973 25.5577 45.1581C24.0303 53.0495 23.7758 59.0316 18.9391 69.2139C14.1025 79.3962 12.0661 81.9418 8.24769 89.8331C4.42932 97.7245 0.865499 104.343 0.101823 115.544C-0.407294 123.011 0.992779 128.526 4.30204 132.09C1.16249 126.32 0.526087 120.55 2.39285 114.78C4.25961 109.01 7.56887 102.391 12.3206 94.9243L18.6846 86.2693C13.0843 95.4334 10.1145 101.458 9.77504 104.343C9.26593 108.67 8.75681 117.835 10.2842 120.889C11.3024 122.926 12.7025 126.787 14.4844 132.472C12.1934 124.241 11.2175 118.853 11.557 116.307C11.8964 113.762 12.4479 110.919 13.2116 107.78C14.9363 103.364 17.1765 101.269 19.5756 99.8882C17.1148 103.367 15.9693 107.313 16.139 111.725C16.3087 116.138 17.5391 121.865 19.8301 128.908C21.3399 135.324 19.1527 140.353 18.1755 145.836C22.342 142.637 25.6955 129.848 24.0303 126.617C22.6348 119.338 24.7561 111.914 30.3943 104.343C27.7306 112.044 25.5974 119.87 28.6124 128.908L35.2309 140.745C40.6779 145.541 40.477 154.476 35.4854 164.928C38.429 163.298 42.0702 159.169 46.4088 152.541C48.5005 149.345 48.9543 141.729 47.7702 129.692C52.2056 141.382 53.8856 151.402 52.8102 159.752C51.7348 168.101 48.8449 174.62 44.1404 179.31C48.9504 177.892 53.7603 176.145 58.5702 172.712C68.3287 162.12 74.1936 149.132 75.1302 133.112L68.8302 100.802C74.6716 113.769 80.0423 127.144 82.3302 143.192C82.8397 150.376 81.0289 155.738 78.1902 160.292C90.6879 146.688 92.1279 127.008 82.5102 101.252L91.8702 117.632C95.5968 126.674 94.709 132.78 94.9302 139.592C96.5103 134.129 99.1294 130.299 98.5302 121.412C98.293 111.331 94.6263 102.107 90.6102 92.9715C93.1232 95.3464 99.1645 101.5 103.57 105.212C110.429 111.726 110.987 121.122 112.93 135.272C117.805 99.7936 91.5259 85.6092 89.7102 65.6115C88.0477 61.528 86.0665 30.7374 84.5802 21.5115C83.0939 12.2856 81.885 12.3597 78.1002 7.38151C73.2354 2.94327 71.6315 0.0930202 57.4902 0.00150527Z"/>
</svg>
