<?xml version="1.0" standalone="no"?>
<!DOCTYPE svg PUBLIC "-//W3C//DTD SVG 20010904//EN" "http://www.w3.org/TR/2001/REC-SVG-20010904/DTD/svg10.dtd">
<!-- Created using Krita: https://krita.org -->
<svg xmlns="http://www.w3.org/2000/svg" 
    xmlns:xlink="http://www.w3.org/1999/xlink"
    xmlns:krita="http://krita.org/namespaces/svg/krita"
    xmlns:sodipodi="http://sodipodi.sourceforge.net/DTD/sodipodi-0.dtd"
    width="288pt"
    height="504pt"
    viewBox="0 0 288 504">
<defs/>
<path id="shape0" transform="translate(40.5989340069725, 193.586295323216)" fill="#090b23" fill-rule="evenodd" stroke="#000000" stroke-opacity="0" stroke-width="0" stroke-linecap="square" stroke-linejoin="bevel" d="M79.7199 8.71951C77.8193 17.5704 70.3063 28.2498 64.4464 37.7392C60.5397 44.0654 50.2725 52.8901 33.6448 64.2133C26.9066 68.6775 21.1523 74.108 16.382 80.505C11.6117 86.9019 6.32893 95.8415 0.533718 107.324C0.0448792 109.043 -0.852156 113.074 1.95226 114.807C5.97163 117.291 15.389 116.837 23.1442 118.625C26.0264 119.29 21.5599 124.547 24.417 125.244C37.5517 133.585 56.5347 128.15 59.737 126.771C62.8304 123.908 60.7768 116.05 60.6752 115.634C59.537 110.982 61.7431 108.606 67.2937 108.506C74.2958 108.292 80.3732 109.003 83.3309 112.834C82.2551 114.638 81.9411 117.288 82.3927 120.789C97.4552 132.264 101.005 115.379 109.885 111.625C112.442 111.824 116.309 112.747 115.12 117.543C112.967 121.244 108.367 126.201 113.855 128.373C121.858 128.857 129.058 127.291 134.904 122.264L144.823 115.353C148.482 113.93 149.702 116.942 151.633 118.662C154.476 120.997 157.478 121.814 160.638 121.113C165.42 120.052 161.925 123.308 163.341 126.134C164.907 129.26 173.923 126.339 176.211 124.474C179.643 121.675 178.34 116.52 175.497 112.998C173.603 110.651 174.324 108.296 177.661 105.934C181.386 104.36 181.335 106.07 184.725 107.844C183.553 116.963 186.183 119.509 192.617 115.48C195.812 113.48 207.913 112.89 213.978 110.788C205.215 85.1913 195.938 78.7256 193.761 77.1337C180.574 63.4009 170.153 54.0029 162.499 48.9397C151.017 41.345 135.261 34.6845 132.206 29.0842C130.17 25.3506 127.545 17.3957 124.331 5.21933C122.133 2.4596 115.469 -0.0540577 103.314 0.000884262C91.158 0.0558262 81.6204 -0.131341 79.7199 8.71951Z"/>
</svg>
