<?xml version="1.0" standalone="no"?>
<!DOCTYPE svg PUBLIC "-//W3C//DTD SVG 20010904//EN" "http://www.w3.org/TR/2001/REC-SVG-20010904/DTD/svg10.dtd">
<!-- Created using Krita: https://krita.org -->
<svg xmlns="http://www.w3.org/2000/svg" 
    xmlns:xlink="http://www.w3.org/1999/xlink"
    xmlns:krita="http://krita.org/namespaces/svg/krita"
    xmlns:sodipodi="http://sodipodi.sourceforge.net/DTD/sodipodi-0.dtd"
    width="288pt"
    height="504pt"
    viewBox="0 0 288 504">
<defs/>
<path id="shape0" transform="translate(22.5920608438937, 169.913327407178)" fill="#090b23" fill-rule="evenodd" stroke="#000000" stroke-opacity="0" stroke-width="0" stroke-linecap="square" stroke-linejoin="bevel" d="M97.0504 11.8414C96.0839 18.604 95.4899 25.0528 95.2685 31.1878C94.5026 41.0119 89.8357 50.8548 81.2678 60.7166C69.417 71.7566 59.1691 81.0222 49.6779 87.7567C38.4338 95.735 29.8698 97.6391 18.6279 106.837C12.1219 112.62 5.91255 119.903 0 128.684C1.24348 131.05 3.96488 133.36 9.60958 135.557C17.3092 137.238 23.419 137.184 28.3196 135.811C38.4796 135.505 40.3126 138.79 44.8659 140.903C47.8894 141.153 59.007 145.677 73.8219 142.621C91.0926 137.161 108.065 137.503 124.738 143.647C137.713 148.734 153.261 147.904 171.381 141.157L192.688 132.757C203.382 129.134 211.957 131.021 218.347 134.093C221.831 135.278 222.951 138.181 231.585 135.62C228.445 125.565 224.669 117.398 220.257 111.119C213.638 101.701 188.31 76.2447 179.146 70.1353C169.981 64.0259 162.694 60.0751 157.508 55.4345C152.322 50.7939 148.878 47.6945 144.628 32.4067C144.189 26.1055 142.989 18.8455 141.028 10.6267C134.366 3.70014 127.826 0.16014 121.408 0.00667926C113.193 -0.189733 101.632 3.95009 97.0504 11.8414Z"/>
</svg>
