<?xml version="1.0" standalone="no"?>
<!DOCTYPE svg PUBLIC "-//W3C//DTD SVG 20010904//EN" "http://www.w3.org/TR/2001/REC-SVG-20010904/DTD/svg10.dtd">
<!-- Created using Krita: https://krita.org -->
<svg xmlns="http://www.w3.org/2000/svg" 
    xmlns:xlink="http://www.w3.org/1999/xlink"
    xmlns:krita="http://krita.org/namespaces/svg/krita"
    xmlns:sodipodi="http://sodipodi.sourceforge.net/DTD/sodipodi-0.dtd"
    width="1382.4pt"
    height="777.6pt"
    viewBox="0 0 1382.4 777.6">
<defs/>
<path id="shape0" transform="matrix(0.999999956429064 0 0 0.370697374022881 -0.445519283563959 692.65432237892)" fill="#000935" fill-opacity="0.654901960784314" stroke="#000000" stroke-opacity="0" stroke-width="0" stroke-linecap="square" stroke-linejoin="bevel" d="M0 54.4417C10.6151 18.4409 19.2641 10.0237 31.9995 0C24.5612 12.8481 19.7884 36.9315 16.8009 56.21C31.405 41.373 41.605 44.7406 74.6055 8.32407C62.4614 37.2305 48.5912 62.8522 38.4271 76.9945C61.514 61.109 84.9095 67.0886 109.227 64.3986C97.8441 74.9467 85.2189 82.3759 75.5403 98.1168C97.4385 80.7186 118.177 93.4715 138.67 89.6508C129.454 96.9993 117.727 102.734 114.742 114.088C138.851 112.985 149.796 106.461 166.672 102.379C161.094 107.896 155.923 112.665 147.58 123.253C167.116 122.287 184.568 120.785 199.309 106.873C195.471 118.002 192.588 128.553 173.389 148.993C203.916 121.926 228.594 107.547 247.42 105.855C232.519 117.366 220.951 130.337 216.873 146.584C247.285 136.512 261.868 115.887 280.938 98.2536C274.157 114.121 273.459 125.063 253.578 151.534C272.452 137.898 292.262 120.141 307.938 120.574C296.577 126.71 286.815 134.802 281.531 148.366C301.118 134.03 315.368 134.942 330.406 133.601C317.611 139.906 308.959 149.045 309.023 164.148C332.834 151.456 333.738 154.508 353.826 126.474C353.68 139.773 351.904 152.709 345.68 164.658C358.156 159.249 369.544 156.018 387.858 138.934C379.413 151.906 377.388 161.426 378.529 172.852C378.48 193.228 378.539 219.74 378.497 223.846L0.497919 223.894C0.497919 205.025 0.14687 80.9439 0 54.4417Z"/><path id="shape01" transform="matrix(0.999999919436496 0 0 0.370697360309832 377.999999807432 743.457010534366)" fill="#000935" fill-opacity="0.654901960784314" stroke="#000000" stroke-opacity="0" stroke-width="0" stroke-linecap="square" stroke-linejoin="bevel" d="M0 32.5635C8.81102 11.9502 17.7954 12.0304 26.5176 0C29.8517 0.868904 22.5621 25.7661 13.902 32.1846C31.6023 15.638 34.9439 15.4984 75.3559 3.60387C54.9666 12.9263 40.5536 21.6363 32.1169 29.7339C51.2801 20.6382 70.9542 15.3202 91.139 13.78C81.6905 19.8196 71.211 24.0734 63.1773 33.0863C81.3538 23.1245 98.3563 20.9899 115.367 18.8023C107.717 23.0099 97.9836 26.2937 95.5051 32.7948C115.517 32.1628 124.602 28.4273 138.609 26.0901C133.979 29.2489 129.688 31.9799 122.762 38.0419C138.978 37.4891 152.787 32.4526 165.021 24.4867C161.837 30.8591 159.443 36.9005 143.507 48.6037C168.846 33.1059 189.329 24.8725 204.957 23.9037C192.587 30.4951 182.986 37.9217 179.601 47.2244C204.844 41.4572 216.949 29.6481 232.778 19.5516C227.149 28.6367 226.57 34.9018 210.068 50.0585C225.733 42.2512 242.178 32.0839 255.189 32.3315C245.759 35.8453 237.656 40.4781 233.27 48.2447C249.528 40.0363 261.356 40.5586 273.839 39.7909C263.218 43.4009 256.036 48.6338 256.09 57.2812C275.854 50.0138 276.605 51.7618 293.278 35.7098C293.156 43.3245 291.683 50.7317 286.516 57.5732C296.873 54.4763 306.324 52.6263 321.527 42.844C314.517 50.2716 312.836 55.7224 313.783 62.2649C313.742 73.9318 313.791 89.112 313.757 91.463L0 91.4904C0 80.6865 0.121909 47.738 0 32.5635Z"/><path id="shape03" transform="matrix(-0.999999901791816 0 0 0.370697353768995 1008.68002448545 740.968628772455)" fill="#000935" fill-opacity="0.654901960784314" stroke="#000000" stroke-opacity="0" stroke-width="0" stroke-linecap="square" stroke-linejoin="bevel" d="M0 34.9989C8.91841 12.844 18.0123 12.9301 26.8407 0C30.2155 0.93389 22.8371 27.6932 14.0715 34.5917C31.9875 16.8075 35.3698 16.6576 76.2743 3.87341C55.6365 13.8931 41.0478 23.2545 32.5083 31.9577C51.9051 22.1818 71.8189 16.466 92.2498 14.8106C82.6861 21.3019 72.0789 25.8739 63.9473 35.5608C82.3453 24.854 99.555 22.5598 116.773 20.2086C109.03 24.7308 99.1778 28.2602 96.6691 35.2475C116.925 34.5683 126.121 30.5534 140.299 28.0414C135.612 31.4365 131.269 34.3717 124.258 40.8871C140.672 40.293 154.649 34.8798 167.033 26.3181C163.809 33.1671 161.386 39.6603 145.256 52.2388C170.904 35.582 191.637 26.7328 207.455 25.6915C194.934 32.7759 185.216 40.7579 181.79 50.7564C207.34 44.5578 219.593 31.8655 235.615 21.0139C229.917 30.7784 229.332 37.5122 212.628 53.8025C228.485 45.4113 245.129 34.4835 258.299 34.7496C248.754 38.5262 240.553 43.5056 236.113 51.853C252.569 43.0307 264.541 43.592 277.176 42.767C266.426 46.6469 259.156 52.2711 259.211 61.5654C279.216 53.7544 279.976 55.6331 296.852 38.3806C296.729 46.5648 295.238 54.526 290.008 61.8792C300.491 58.5506 310.058 56.5623 325.445 46.0484C318.35 54.0315 316.649 59.8899 317.607 66.9218C317.565 79.4612 317.615 95.7768 317.58 98.3036L0 98.3331C0 86.7211 0.123395 51.3084 0 34.9989Z"/><path id="shape011" transform="matrix(-0.999999955178105 0 0 0.370697373559154 1382.39997558594 679.889497481247)" fill="#000935" fill-opacity="0.654901960784314" stroke="#000000" stroke-opacity="0" stroke-width="0" stroke-linecap="square" stroke-linejoin="bevel" d="M0 47.3824C10.6151 11.3816 21.7141 21.0109 32.2221 0C36.2389 1.51753 27.4568 45.0002 17.0235 56.21C38.348 27.3115 42.1192 51.4456 90.8056 30.672C66.2415 46.9535 55.3686 87.1461 45.2045 101.288C68.2914 85.4029 85.7995 71.0168 110.117 68.3268C98.7341 78.8749 91.7941 99.2816 82.1155 115.023C104.014 97.6243 121.952 101.722 142.445 97.9014C133.229 105.25 121.502 110.985 118.517 122.339C142.626 121.235 153.571 114.711 170.447 110.629C164.869 116.146 159.698 120.916 151.355 131.503C170.891 130.538 187.785 137.495 202.526 123.583C198.688 134.712 195.805 145.263 176.606 165.703C207.133 138.636 228.375 134.387 247.201 132.695C232.3 144.207 220.732 157.177 216.654 173.424C247.066 163.352 261.649 142.727 280.719 125.094C273.938 140.961 273.24 151.903 253.359 178.374C272.233 164.739 292.043 146.981 307.719 147.414C296.358 153.551 286.596 161.642 281.312 175.206C300.899 160.87 315.149 161.782 330.187 160.442C317.392 166.746 308.74 175.886 308.804 190.988C332.615 178.296 333.519 181.349 353.607 153.314C353.461 166.613 351.685 179.55 345.461 191.498C357.937 186.089 369.325 182.858 387.639 165.774C379.194 178.746 377.169 188.266 378.31 199.692C378.261 220.068 378.32 246.58 378.278 250.686L0.279049 250.734C0.279049 231.865 0.14687 73.8846 0 47.3824Z"/>
</svg>
