<?xml version="1.0" standalone="no"?>
<!DOCTYPE svg PUBLIC "-//W3C//DTD SVG 20010904//EN" "http://www.w3.org/TR/2001/REC-SVG-20010904/DTD/svg10.dtd">
<!-- Created using Krita: https://krita.org -->
<svg xmlns="http://www.w3.org/2000/svg" 
    xmlns:xlink="http://www.w3.org/1999/xlink"
    xmlns:krita="http://krita.org/namespaces/svg/krita"
    xmlns:sodipodi="http://sodipodi.sourceforge.net/DTD/sodipodi-0.dtd"
    width="1382.4pt"
    height="777.6pt"
    viewBox="0 0 1382.4 777.6">
<defs/>
<path id="shape0" transform="matrix(0.931337275066289 0.364157770665697 -0.364157770665697 0.931337275066289 42.1625169084559 662.494710097426)" fill="#000a35" fill-rule="evenodd" stroke="#000000" stroke-opacity="0" stroke-width="0" stroke-linecap="square" stroke-linejoin="bevel" d="M2.11676 61.3626C1.19847 61.3768 1.39817 61.2995 0.62162 61.4891C-2.0485 40.3866 4.08556 17.8636 15.1384 0C3.34177 24.4487 11.4452 14.4329 2.11676 61.3626Z"/><path id="shape01" transform="matrix(0.931337245091361 0.364157758945344 -0.364157758945344 0.931337245091361 40.3658118310486 668.796234436845)" fill="#5e6a9c" fill-rule="evenodd" stroke="#000000" stroke-opacity="0" stroke-width="0" stroke-linecap="square" stroke-linejoin="bevel" d="M0.346247 53.7326C0.0260976 53.7468 0.465728 53.6505 0.141264 53.7644C-0.789638 32.6619 2.90289 17.8007 10.5497 0C2.62211 22.848 3.59849 6.8029 0.346247 53.7326Z"/><path id="shape02" transform="matrix(0.519025273260438 0.092291190843734 -0.0134726871202997 0.622055767994676 0.96407077034183 666.185212273082)" fill="#000a35" fill-rule="evenodd" stroke="#000000" stroke-opacity="0" stroke-width="0" stroke-linecap="square" stroke-linejoin="bevel" d="M2.11676 61.3626C1.19847 61.3768 1.39817 61.2995 0.62162 61.4891C-2.0485 40.3866 4.08556 17.8636 15.1384 0C3.34177 24.4487 11.4452 14.4329 2.11676 61.3626Z"/><path id="shape011" transform="matrix(0.5190252565557 0.0922911878733587 -0.0134726866866836 0.62205574797392 1.19871442726413 670.300312760834)" fill="#5e6a9c" fill-rule="evenodd" stroke="#000000" stroke-opacity="0" stroke-width="0" stroke-linecap="square" stroke-linejoin="bevel" d="M0.346247 53.7326C0.0260979 53.7468 0.465728 53.6505 0.141264 53.7644C-0.789638 32.6619 2.90289 17.8007 10.5497 0C2.62211 22.848 3.59849 6.8029 0.346247 53.7326Z"/><path id="shape03" transform="matrix(0.980001508291918 0.4286618743461 -0.383185741688696 1.09630718918478 24.6241324839945 639.003450185171)" fill="#000a35" fill-rule="evenodd" stroke="#000000" stroke-opacity="0" stroke-width="0" stroke-linecap="square" stroke-linejoin="bevel" d="M2.11676 61.3626C1.19847 61.3768 1.39817 61.2995 0.62162 61.4891C-2.0485 40.3866 4.08556 17.8636 15.1384 0C3.34177 24.4487 11.4452 14.4329 2.11676 61.3626Z"/><path id="shape011" transform="matrix(0.98000147675074 0.428661860549693 -0.38318572935593 1.09630715390032 22.7335457858857 646.421177944247)" fill="#5e6a9c" fill-rule="evenodd" stroke="#000000" stroke-opacity="0" stroke-width="0" stroke-linecap="square" stroke-linejoin="bevel" d="M0.346247 53.7326C0.0260979 53.7468 0.465728 53.6505 0.141264 53.7644C-0.789638 32.6619 2.90289 17.8007 10.5497 0C2.62211 22.848 3.59849 6.8029 0.346247 53.7326Z"/><path id="shape04" transform="matrix(0.377092203144625 0.269928851177492 -0.265123630478997 0.409317142718398 20.594018151258 679.017943220771)" fill="#000a35" fill-rule="evenodd" stroke="#000000" stroke-opacity="0" stroke-width="0" stroke-linecap="square" stroke-linejoin="bevel" d="M2.11676 61.3626C1.19847 61.3768 1.39817 61.2995 0.62162 61.4891C-2.0485 40.3866 4.08556 17.8636 15.1384 0C3.34177 24.4487 11.4452 14.4329 2.11676 61.3626Z"/><path id="shape012" transform="matrix(0.377092191007978 0.269928842489879 -0.265123621946039 0.409317129544597 19.8221100068753 680.976513109637)" fill="#5e6a9c" fill-rule="evenodd" stroke="#000000" stroke-opacity="0" stroke-width="0" stroke-linecap="square" stroke-linejoin="bevel" d="M0.346247 53.7326C0.0260979 53.7468 0.465728 53.6505 0.141264 53.7644C-0.789638 32.6619 2.90289 17.8007 10.5497 0C2.62211 22.848 3.59849 6.8029 0.346247 53.7326Z"/><path id="shape05" transform="matrix(0.975626550477247 0.21943764060559 -0.21943764060559 0.975626550477247 43.3991541913626 681.604993990339)" fill="#000a35" fill-rule="evenodd" stroke="#000000" stroke-opacity="0" stroke-width="0" stroke-linecap="square" stroke-linejoin="bevel" d="M2.11676 61.3626C1.19847 61.3768 1.39817 61.2995 0.62162 61.4891C-2.0485 40.3866 4.08556 17.8636 15.1384 0C3.34177 24.4487 11.4452 14.4329 2.11676 61.3626Z"/><path id="shape013" transform="matrix(0.975626519076876 0.219437633543028 -0.219437633543028 0.975626519076876 42.5739987718321 688.105492297456)" fill="#5e6a9c" fill-rule="evenodd" stroke="#000000" stroke-opacity="0" stroke-width="0" stroke-linecap="square" stroke-linejoin="bevel" d="M0.346247 53.7326C0.0260979 53.7468 0.465728 53.6505 0.141264 53.7644C-0.789638 32.6619 2.90289 17.8007 10.5497 0C2.62211 22.848 3.59849 6.8029 0.346247 53.7326Z"/><path id="shape06" transform="matrix(0.28226233076744 0.317091422395107 -0.300842186278214 0.497524396088717 25.5711083859495 690.753158199647)" fill="#000a35" fill-rule="evenodd" stroke="#000000" stroke-opacity="0" stroke-width="0" stroke-linecap="square" stroke-linejoin="bevel" d="M2.11676 61.3626C1.19847 61.3768 1.39817 61.2995 0.62162 61.4891C-2.0485 40.3866 4.08556 17.8636 15.1384 0C3.34177 24.4487 11.4452 14.4329 2.11676 61.3626Z"/><path id="shape014" transform="matrix(0.282262321682876 0.317091412189576 -0.300842176595661 0.49752438007598 23.7840768749194 694.195617745095)" fill="#5e6a9c" fill-rule="evenodd" stroke="#000000" stroke-opacity="0" stroke-width="0" stroke-linecap="square" stroke-linejoin="bevel" d="M0.346247 53.7326C0.0260979 53.7468 0.465728 53.6505 0.141264 53.7644C-0.789638 32.6619 2.90289 17.8007 10.5497 0C2.62211 22.848 3.59849 6.8029 0.346247 53.7326Z"/><path id="shape07" transform="matrix(-1.83248216991264 0.999002074551339 0.716510161941634 2.55495816606462 1341.38914450856 580.060655499724)" fill="#000a35" fill-rule="evenodd" stroke="#000000" stroke-opacity="0" stroke-width="0" stroke-linecap="square" stroke-linejoin="bevel" d="M2.11676 61.3626C1.19847 61.3768 1.39817 61.2995 0.62162 61.4891C-2.0485 40.3866 4.08556 17.8636 15.1384 0C3.34177 24.4487 11.4452 14.4329 2.11676 61.3626Z"/><path id="shape015" transform="matrix(-1.83248211093452 0.999002042398633 0.716510138880881 2.55495808383375 1338.15508911214 589.371911615559)" fill="#5e6a9c" fill-rule="evenodd" stroke="#000000" stroke-opacity="0" stroke-width="0" stroke-linecap="square" stroke-linejoin="bevel" d="M0.346247 53.7326C0.0260979 53.7468 0.465728 53.6505 0.141264 53.7644C-0.789638 32.6619 2.90289 17.8007 10.5497 0C2.62211 22.848 3.59849 6.8029 0.346247 53.7326Z"/><path id="shape08" transform="matrix(-1.201981477844 0.673227745698979 0.469981076750071 1.72178694150099 1331.8443716362 646.754966032306)" fill="#000a35" fill-rule="evenodd" stroke="#000000" stroke-opacity="0" stroke-width="0" stroke-linecap="square" stroke-linejoin="bevel" d="M2.11676 61.3626C1.19847 61.3768 1.39817 61.2995 0.62162 61.4891C-2.0485 40.3866 4.08556 17.8636 15.1384 0C3.34177 24.4487 11.4452 14.4329 2.11676 61.3626Z"/><path id="shape016" transform="matrix(-1.20198143915843 0.673227724031262 0.469981061623814 1.72178688608558 1329.72305535854 653.02982370588)" fill="#5e6a9c" fill-rule="evenodd" stroke="#000000" stroke-opacity="0" stroke-width="0" stroke-linecap="square" stroke-linejoin="bevel" d="M0.346247 53.7326C0.0260982 53.7468 0.465728 53.6505 0.141264 53.7644C-0.789638 32.6619 2.90289 17.8007 10.5497 0C2.62211 22.848 3.59849 6.8029 0.346247 53.7326Z"/><path id="shape017" transform="matrix(-1.20198145057138 0.673227730423632 0.469981066086336 1.72178690243414 1333.51796324826 662.997148462683)" fill="#5e6a9c" fill-rule="evenodd" stroke="#000000" stroke-opacity="0" stroke-width="0" stroke-linecap="square" stroke-linejoin="bevel" d="M0.346247 53.7326C0.0260985 53.7468 0.465728 53.6505 0.141264 53.7644C-0.789638 32.6619 2.90289 17.8007 10.5497 0C2.62211 22.848 3.59849 6.8029 0.346247 53.7326Z"/><path id="shape09" transform="matrix(-0.815414670841566 0.894114812846615 0.318831422999399 2.28670790649536 1294.93625630717 624.353831410258)" fill="#000a35" fill-rule="evenodd" stroke="#000000" stroke-opacity="0" stroke-width="0" stroke-linecap="square" stroke-linejoin="bevel" d="M2.11676 61.3626C1.19847 61.3768 1.39817 61.2995 0.62162 61.4891C-2.0485 40.3866 4.08556 17.8636 15.1384 0C3.34177 24.4487 11.4452 14.4329 2.11676 61.3626Z"/><path id="shape018" transform="matrix(-0.815414644597583 0.894114784069686 0.318831412737866 2.28670783289807 1293.49717238186 632.687479440923)" fill="#5e6a9c" fill-rule="evenodd" stroke="#000000" stroke-opacity="0" stroke-width="0" stroke-linecap="square" stroke-linejoin="bevel" d="M0.346247 53.7326C0.0260985 53.7468 0.465728 53.6505 0.141264 53.7644C-0.789638 32.6619 2.90289 17.8007 10.5497 0C2.62211 22.848 3.59849 6.8029 0.346247 53.7326Z"/><path id="shape0111" transform="matrix(-0.815414652340037 0.894114792559403 0.318831415765205 2.28670785461062 1296.07160769955 645.925098903944)" fill="#5e6a9c" fill-rule="evenodd" stroke="#000000" stroke-opacity="0" stroke-width="0" stroke-linecap="square" stroke-linejoin="bevel" d="M0.346247 53.7326C0.0260988 53.7468 0.465728 53.6505 0.141264 53.7644C-0.789638 32.6619 2.90289 17.8007 10.5497 0C2.62211 22.848 3.59849 6.8029 0.346247 53.7326Z"/><path id="shape010" transform="matrix(-1.20198150517713 0.673227761008219 0.469981087437469 1.72178698065453 1289.39388602764 663.401252411561)" fill="#000a35" fill-rule="evenodd" stroke="#000000" stroke-opacity="0" stroke-width="0" stroke-linecap="square" stroke-linejoin="bevel" d="M2.11676 61.3626C1.19847 61.3768 1.39817 61.2995 0.62162 61.4891C-2.0485 40.3866 4.08556 17.8636 15.1384 0C3.34177 24.4487 11.4452 14.4329 2.11676 61.3626Z"/><path id="shape019" transform="matrix(-1.20198146649156 0.6732277393405 0.469981072311212 1.72178692523912 1287.27256993599 669.676110096619)" fill="#5e6a9c" fill-rule="evenodd" stroke="#000000" stroke-opacity="0" stroke-width="0" stroke-linecap="square" stroke-linejoin="bevel" d="M0.346247 53.7326C0.0260985 53.7468 0.465728 53.6505 0.141264 53.7644C-0.789638 32.6619 2.90289 17.8007 10.5497 0C2.62211 22.848 3.59849 6.8029 0.346247 53.7326Z"/><path id="shape0111" transform="matrix(-1.20198147790451 0.673227745732872 0.469981076773733 1.72178694158768 1291.06747791202 679.643435080079)" fill="#5e6a9c" fill-rule="evenodd" stroke="#000000" stroke-opacity="0" stroke-width="0" stroke-linecap="square" stroke-linejoin="bevel" d="M0.346247 53.7326C0.0260988 53.7468 0.465728 53.6505 0.141264 53.7644C-0.789638 32.6619 2.90289 17.8007 10.5497 0C2.62211 22.848 3.59849 6.8029 0.346247 53.7326Z"/><path id="shape0112" transform="matrix(0.419642944116627 0.0641777249971383 0.0856389483557334 0.575067380964881 1053.82459961834 731.981216341607)" fill="#000a35" fill-rule="evenodd" stroke="#000000" stroke-opacity="0" stroke-width="0" stroke-linecap="square" stroke-linejoin="bevel" d="M2.11676 61.3626C1.19847 61.3768 1.39817 61.2995 0.62162 61.4891C-2.0485 40.3866 4.08556 17.8636 15.1384 0C3.34177 24.4487 11.4452 14.4329 2.11676 61.3626Z"/><path id="shape0110" transform="matrix(0.419642930610492 0.0641777229315894 0.0856389455994583 0.575067362456437 1054.64400392077 735.772335523647)" fill="#5e6a9c" fill-rule="evenodd" stroke="#000000" stroke-opacity="0" stroke-width="0" stroke-linecap="square" stroke-linejoin="bevel" d="M0.346247 53.7326C0.0260982 53.7468 0.465728 53.6505 0.141264 53.7644C-0.789638 32.6619 2.90289 17.8007 10.5497 0C2.62211 22.848 3.59849 6.8029 0.346247 53.7326Z"/><path id="shape0121" transform="matrix(0.825546003823008 0.125462871686044 0.168473919501985 1.1242156843678 1058.5864204288 694.43998508003)" fill="#000a35" fill-rule="evenodd" stroke="#000000" stroke-opacity="0" stroke-width="0" stroke-linecap="square" stroke-linejoin="bevel" d="M2.11676 61.3626C1.19847 61.3768 1.39817 61.2995 0.62162 61.4891C-2.0485 40.3866 4.08556 17.8636 15.1384 0C3.34177 24.4487 11.4452 14.4329 2.11676 61.3626Z"/><path id="shape01111" transform="matrix(0.825545977252956 0.125462867648043 0.168473914079681 1.12421564818511 1060.19840006377 701.851352465439)" fill="#5e6a9c" fill-rule="evenodd" stroke="#000000" stroke-opacity="0" stroke-width="0" stroke-linecap="square" stroke-linejoin="bevel" d="M0.346247 53.7326C0.0260985 53.7468 0.465728 53.6505 0.141264 53.7644C-0.789638 32.6619 2.90289 17.8007 10.5497 0C2.62211 22.848 3.59849 6.8029 0.346247 53.7326Z"/><path id="shape0131" transform="matrix(0.617504893989681 0.0745897496570275 0.126017774079618 0.668364794545234 1074.42641968811 720.359983845469)" fill="#000a35" fill-rule="evenodd" stroke="#000000" stroke-opacity="0" stroke-width="0" stroke-linecap="square" stroke-linejoin="bevel" d="M2.11676 61.3626C1.19847 61.3768 1.39817 61.2995 0.62162 61.4891C-2.0485 40.3866 4.08556 17.8636 15.1384 0C3.34177 24.4487 11.4452 14.4329 2.11676 61.3626Z"/><path id="shape0112" transform="matrix(0.617504874115396 0.0745897472563694 0.126017770023757 0.668364773034028 1075.63217358794 724.766164179659)" fill="#5e6a9c" fill-rule="evenodd" stroke="#000000" stroke-opacity="0" stroke-width="0" stroke-linecap="square" stroke-linejoin="bevel" d="M0.346247 53.7326C0.0260985 53.7468 0.465728 53.6505 0.141264 53.7644C-0.789638 32.6619 2.90289 17.8007 10.5497 0C2.62211 22.848 3.59849 6.8029 0.346247 53.7326Z"/><path id="shape0141" transform="matrix(-0.390068931317357 -0.167526701556952 -0.376883677339421 0.442713439580121 33.0496686732613 684.909980225925)" fill="#000a35" fill-rule="evenodd" stroke="#000000" stroke-opacity="0" stroke-width="0" stroke-linecap="square" stroke-linejoin="bevel" d="M2.11676 61.3626C1.19847 61.3768 1.39817 61.2995 0.62162 61.4891C-2.0485 40.3866 4.08556 17.8636 15.1384 0C3.34177 24.4487 11.4452 14.4329 2.11676 61.3626Z"/><path id="shape0113" transform="matrix(-0.390068918763058 -0.167526696165135 -0.376883665209484 0.442713425331466 30.3488152173717 687.693754152441)" fill="#5e6a9c" fill-rule="evenodd" stroke="#000000" stroke-opacity="0" stroke-width="0" stroke-linecap="square" stroke-linejoin="bevel" d="M0.346247 53.7326C0.0260985 53.7468 0.465728 53.6505 0.141264 53.7644C-0.789638 32.6619 2.90289 17.8007 10.5497 0C2.62211 22.848 3.59849 6.8029 0.346247 53.7326Z"/><path id="shape0114" transform="matrix(-0.766947701348345 -0.330239770101357 -0.737676741219657 0.864914615133779 105.880686507183 690.911261512893)" fill="#000a35" fill-rule="evenodd" stroke="#000000" stroke-opacity="0" stroke-width="0" stroke-linecap="square" stroke-linejoin="bevel" d="M2.11676 61.3626C1.19847 61.3768 1.39817 61.2995 0.62162 61.4891C-2.0485 40.3866 4.08556 17.8636 15.1384 0C3.34177 24.4487 11.4452 14.4329 2.11676 61.3626Z"/><path id="shape01121" transform="matrix(-0.766947676664268 -0.330239759472648 -0.737676717477657 0.864914587296648 99.5739036386859 697.111671843495)" fill="#5e6a9c" fill-rule="evenodd" stroke="#000000" stroke-opacity="0" stroke-width="0" stroke-linecap="square" stroke-linejoin="bevel" d="M0.346247 53.7326C0.0260988 53.7468 0.465728 53.6505 0.141264 53.7644C-0.789638 32.6619 2.90289 17.8007 10.5497 0C2.62211 22.848 3.59849 6.8029 0.346247 53.7326Z"/><path id="shape021" transform="matrix(-0.563487294494677 -0.263359001561498 -0.460504093102707 0.500527643814546 45.8431923204865 674.742773153016)" fill="#000a35" fill-rule="evenodd" stroke="#000000" stroke-opacity="0" stroke-width="0" stroke-linecap="square" stroke-linejoin="bevel" d="M2.11676 61.3626C1.19847 61.3768 1.39817 61.2995 0.62162 61.4891C-2.0485 40.3866 4.08556 17.8636 15.1384 0C3.34177 24.4487 11.4452 14.4329 2.11676 61.3626Z"/><path id="shape0122" transform="matrix(-0.563487276358937 -0.263358993085335 -0.460504078281462 0.500527627705151 42.489108332729 677.844125465435)" fill="#5e6a9c" fill-rule="evenodd" stroke="#000000" stroke-opacity="0" stroke-width="0" stroke-linecap="square" stroke-linejoin="bevel" d="M0.346247 53.7326C0.0260988 53.7468 0.465728 53.6505 0.141264 53.7644C-0.789638 32.6619 2.90289 17.8007 10.5497 0C2.62211 22.848 3.59849 6.8029 0.346247 53.7326Z"/>
</svg>
