<?xml version="1.0" standalone="no"?>
<!DOCTYPE svg PUBLIC "-//W3C//DTD SVG 20010904//EN" "http://www.w3.org/TR/2001/REC-SVG-20010904/DTD/svg10.dtd">
<!-- Created using Krita: https://krita.org -->
<svg
    xmlns="http://www.w3.org/2000/svg"
    xmlns:xlink="http://www.w3.org/1999/xlink"
    xmlns:krita="http://krita.org/namespaces/svg/krita"
    xmlns:sodipodi="http://sodipodi.sourceforge.net/DTD/sodipodi-0.dtd"
    width="120px"
    height="120px"
    viewBox="0 0 120 120"
>
    <defs />
    <path
        id="shape0"
        transform="matrix(0.146718399669875 0 0 0.146718399669875 15.7349746058238 39.3714607197298)"
        fill="#ffffff"
        fill-rule="evenodd"
        stroke="#000000"
        stroke-opacity="0"
        stroke-width="0"
        stroke-linecap="square"
        stroke-linejoin="bevel"
        d="M278.733 159.958L209.617 120.294L209.619 162.97L209.793 163.07L209.802 325.673L209.769 325.654L209.771 356.911L209.731 356.888L209.731 373.201L69.3374 292.147L69.3374 249.09L69.1604 248.988L69.1604 86.876L69.1924 86.893L69.1924 55.638L69.2324 55.66L69.2324 39.73L0.0008 0L0 321.872L278.75 482.803L278.733 159.958"
    />
    <path
        id="shape1"
        transform="matrix(0.146718399669875 0 0 0.146718399669875 63.3672714861985 39.388406933322)"
        fill="#ffffff"
        fill-rule="evenodd"
        stroke="#000000"
        stroke-opacity="0"
        stroke-width="0"
        stroke-linecap="square"
        stroke-linejoin="bevel"
        d="M0.017 159.958L69.133 120.294L69.131 162.969L68.957 163.069L68.948 325.672L68.981 325.653L68.979 356.91L69.019 356.887L69.019 373.2L209.413 292.146L209.413 249.089L209.59 248.987L209.59 86.876L209.558 86.893L209.558 55.638L209.518 55.66L209.518 39.73L278.75 0L278.75 321.871L0 482.803L0.017 159.958"
    />
    <path
        id="rect5794"
        transform="matrix(0.351445766950953 0.222384360651793 -0.367130224015501 0.195408112279841 61.9559965487948 9.77550955086338)"
        fill="#ffffff"
        stroke="#000000"
        stroke-opacity="0"
        stroke-width="0"
        stroke-linecap="square"
        stroke-linejoin="bevel"
        d="M0 5.29917L110.835 0L114.981 115.371L4.50354 121.006Z"
    />
</svg>
