<?xml version="1.0" standalone="no"?>
<!DOCTYPE svg PUBLIC "-//W3C//DTD SVG 20010904//EN" "http://www.w3.org/TR/2001/REC-SVG-20010904/DTD/svg10.dtd">
<!-- Created using Krita: https://krita.org -->
<svg xmlns="http://www.w3.org/2000/svg" 
    xmlns:xlink="http://www.w3.org/1999/xlink"
    xmlns:krita="http://krita.org/namespaces/svg/krita"
    xmlns:sodipodi="http://sodipodi.sourceforge.net/DTD/sodipodi-0.dtd"
    viewBox="0 0 1152 464">
<defs>
  <linearGradient id="gradient0" gradientUnits="objectBoundingBox" x1="0" y1="0" x2="1" y2="1" spreadMethod="repeat">
   <stop stop-color="#000000" offset="0" stop-opacity="0.180392156862745"/>
   <stop stop-color="#000000" offset="1" stop-opacity="0"/>
  </linearGradient>
  <linearGradient id="gradient1" gradientUnits="objectBoundingBox" x1="0" y1="0" x2="1" y2="1" spreadMethod="pad">
   <stop stop-color="#000000" offset="0" stop-opacity="0.219607843137255"/>
   <stop stop-color="#000000" offset="1" stop-opacity="0"/>
  </linearGradient>
 </defs>
<path id="shape0" transform="matrix(0.99970581787755 -0.0242544367445431 0.0242544367445431 0.99970581787755 594.813163733319 30.2648845013798)" fill="url(#gradient0)" fill-rule="evenodd" stroke="#000000" stroke-opacity="0" stroke-width="0" stroke-linecap="square" stroke-linejoin="bevel" d="M0 310.366C23.7907 301.025 30.8536 310.863 43.223 308.252C55.3586 304.539 70.6536 308.243 78.5217 294.512C81.4787 290.508 73.4036 293.585 72.0383 287.114C62.9248 281.581 87.2403 285.183 93.6498 278.307C102.99 272.372 96.5185 260.994 82.844 257.873C70.0181 246.53 70.5606 245.476 83.9246 240.61C95.4234 239.106 103.164 241.527 122.105 235.326C122.158 218.984 91.4441 219.953 94.01 209.255C97.0944 191.571 111.03 183.971 140.114 180.719C125.341 186.65 121.024 191.053 116.342 201.505C124.266 220.02 121.385 202.439 129.309 202.209C123.98 195.004 126.842 200.565 139.034 195.163C149.128 190.752 152.072 183.312 156.323 167.684C168.026 146.347 185.122 165.446 199.546 164.513C219.571 172.675 223.21 158.73 203.868 113.781C208.839 103.873 202.944 87.3221 227.641 89.4726C240.34 86.6404 253.053 83.8395 252.494 52.4809C272.708 19.5053 315.834 48.1661 319.49 78.9035C305.879 120.416 336.846 111.619 356.229 115.895C373.673 102.679 383.135 87.9012 373.519 69.3914C369.831 62.1882 354.348 62.581 364.454 39.4335C347.838 11.3519 314.022 39.0316 322.732 15.4891C342.672 3.96487 366.626 0.292636 392.308 0C409.278 33.8089 433.238 17.4851 455.642 12.3184C469.752 11.2863 484.153 9.54034 494.543 17.603C501.195 16.0833 508.039 26.6523 515.074 49.3102C522.109 71.968 512.384 97.686 485.898 126.464C472.574 158.696 493.637 151.689 513.993 145.489C524.494 147.994 534.988 150.506 532.363 167.684C519.291 184.045 500.291 202.03 533.444 205.732C541.344 216.489 555.352 224.259 530.202 251.179C445.209 253.426 444.022 275.086 428.628 293.456C417.227 325.065 450.055 322.066 464.287 333.618C463.373 340.885 466.289 349.351 418.903 342.073C394.028 345.033 367.893 335.664 341.101 319.878C328.684 323.941 317.086 331.685 346.504 348.767C355.707 360.671 345.318 375.604 314.087 367.439C291.593 356.423 270.484 339.746 247.091 351.585C212.761 368.64 178.92 359.315 164.968 346.301C147.425 338.931 131.865 337.406 114.181 336.789C93.1272 333.446 75.5887 334.625 72.0383 321.992C69.7693 317.682 65.4259 314.049 46.1045 315.298C19.5098 314.41 4.14165 312.766 0 310.366Z"/><path id="shape0" transform="matrix(-0.599703079904742 -0.800222616853876 0.800222616853876 -0.599703079904742 208.528095027066 530.315018471891)" fill="url(#gradient1)" fill-rule="evenodd" stroke="#000000" stroke-opacity="0" stroke-width="0" stroke-linecap="square" stroke-linejoin="bevel" d="M28.6568 301.996C23.0354 299.586 -1.64504 312.116 2.68253 301.016C-5.07606 295.336 25.5354 292.73 30.992 285.672C38.9436 279.58 33.4342 267.901 21.7927 264.697C10.8737 253.054 11.3355 251.972 22.7127 246.977C32.5019 245.434 39.0917 247.919 55.2168 241.554C55.2619 224.779 29.1142 225.774 31.2987 214.793C33.9245 196.641 45.7883 188.84 70.5483 185.502C57.9717 191.589 54.2965 196.109 50.3105 206.838C57.0565 225.843 54.6038 207.796 61.3497 207.56C56.813 200.165 59.2495 205.873 69.6289 200.328C78.2222 195.8 80.7285 188.163 84.3475 172.122C94.3106 150.22 93.6203 138.245 105.9 137.287C122.948 145.665 141.29 162.931 124.824 116.792C129.056 106.622 124.037 89.633 145.063 91.8404C155.874 88.9332 166.697 86.0582 166.221 53.8697C183.429 20.0215 252.932 64.2371 261.536 40.4771C247.39 11.6523 218.601 40.0645 226.016 15.899C242.992 4.0698 263.385 0.30038 285.248 0C299.696 34.7036 320.093 17.9478 339.167 12.6444C351.179 11.585 363.439 9.79281 372.284 18.0688C377.947 16.5089 383.774 27.3576 389.763 50.6151C395.752 73.8725 387.473 100.271 364.924 129.811C353.581 162.896 371.513 155.703 388.842 149.339C397.782 151.91 406.716 154.489 404.481 172.122C393.353 188.916 377.178 207.376 405.402 211.176C412.127 222.218 424.053 230.194 402.642 257.826C330.285 260.133 329.274 282.366 316.169 301.222C306.463 333.667 334.41 330.589 346.526 342.447C345.748 349.906 348.231 358.596 307.89 351.126C286.713 354.164 264.463 344.547 241.654 328.343C231.083 332.514 221.21 340.463 246.254 357.997C254.089 370.216 245.244 385.544 218.657 377.163C199.507 365.855 181.536 348.737 161.621 360.889C148.076 369.003 127.612 374.477 118.217 368.466C162.915 320.58 141.31 320.697 105.272 331.407C82.3298 352.106 -8.745 411.229 48.4708 345.702C42.7102 344.599 44.2564 327.35 22.4899 332.354C18.8897 334.149 8.16535 345.625 3.16677 360.813C-8.40682 369.51 14.4151 306.368 28.6568 301.996Z"/>
</svg>
